<?xml version="1.0" encoding="UTF-8"?>
<svg id="Capa_2" data-name="Capa 2" xmlns="http://www.w3.org/2000/svg" viewBox="0 0 580.97 738.12">
  <defs>
    <style>
      .cls-1 {
        fill: #fdfcfd;
      }

      .cls-2 {
        fill: #01e0c5;
      }
    </style>
  </defs>
  <g id="Capa_1-2" data-name="Capa 1">
    <g>
      <path class="cls-1" d="M147.23,488.53c-4.22,3.99-8.23,7.87-12.35,11.63-5.66,5.17-11.86,9.54-19.15,12.18-17.64,6.39-33.42-1.82-38.49-19.85-2.25-8.01-1.97-16.02-.62-24.05,1.42-8.46,2.69-16.98,4.8-25.28,2.17-8.52,5.14-16.84,7.99-25.17,3.67-10.69,7.46-21.34,11.43-31.93,2.51-6.69,2.41-13.57,2.07-20.46-.36-7.16,3.05-11.21,10.13-10.83,5.76.31,11.45,1.1,15.83,5.63,5.11,5.29,6.78,11.62,4.95,18.49-3.48,13.03-7.57,25.9-11.19,38.9-2.95,10.61-5.8,21.25-8.26,31.98-.85,3.71-.82,7.76-.43,11.58.76,7.52,6.92,11.29,13.77,8.12,3.98-1.84,7.71-4.7,10.81-7.84,9.81-9.93,15.41-22.39,20.1-35.32,1.65-4.54,3.35-9.06,4.98-13.6,3.66-10.24,7.4-20.46,10.9-30.76,2.97-8.75,5.54-17.65,8.48-26.41,4.75-14.15,19.76-26.14,35.01-25.32,7.91.43,9.67,3.72,8.23,10.39-2.65,12.34-5.97,24.56-9.37,36.72-15.12,54.11-30.37,108.18-45.57,162.26-.33,1.18-.58,2.38-.84,3.44,52.93-8.6,105.71-17.18,158.97-25.84,2.13-11.23,4.36-22.92,6.78-35.69-2.1,1.31-3.35,2.1-4.61,2.86-5.61,3.38-11.37,6.38-17.92,7.54-11.55,2.05-20.12-3.17-23.6-14.44-.48-1.55-.86-3.13-1.43-5.22-2.14,3.78-3.86,7.22-5.94,10.42-5.92,9.14-13.45,16.22-24.53,18.67-16.24,3.59-32.1-4.87-37.81-20.5-3.17-8.67-4.51-17.76-4.84-26.96-.91-25.83,5.68-50.12,15.23-73.81,4.53-11.23,10.06-21.89,17.42-31.53,5.57-7.29,11.77-13.95,19.29-19.33,12.12-8.68,29.86-10.08,44.02,2.97.88-2.61,1.76-5.02,2.51-7.46,1.98-6.46,7.24-8.25,13.85-7.35,2.6.35,5.19,1.05,7.67,1.91,4.95,1.7,7.63,5.41,7.68,10.56.03,3.37-.56,6.8-1.28,10.12-5.53,25.65-11.37,51.23-16.62,76.93-1.67,8.17-1.91,16.63-2.67,24.97-.15,1.67.13,3.44.53,5.08,1.01,4.12,2.85,5.17,6.78,3.55,2.84-1.17,5.58-2.7,8.17-4.38,4.1-2.66,6.19-6.47,7.12-11.43,7.05-37.38,14.34-74.72,21.55-112.08.09-.46.24-.9.34-1.36,2.22-10.32,6.1-10.4,14.76-9.25,3.16.42,6.28,1.43,9.31,2.46,3.86,1.32,4.85,3.12,4.42,7.28-.25,2.47-.59,4.94-.03,7.67,2.18-2.64,4.31-5.32,6.56-7.89,2.83-3.25,5.37-6.92,8.72-9.52,9.16-7.11,19.69-8.98,30.9-6.28,7.72,1.86,12.41,7.25,15.48,14.31,4.79,11.04,6.16,22.73,6.46,34.59.56,21.96-4.32,43.06-10.6,63.88-3.59,11.91-8,23.56-14.59,34.17-3.59,5.78-7.49,11.51-12.07,16.5-19.06,20.76-43.6,13.61-56.99,1.25-1.01-.93-1.91-1.98-3.73-3.87-2.39,16.06-4.62,31.11-6.97,46.9,4.51-.52,8.29-.94,12.06-1.4,30.23-3.7,60.44-7.51,90.69-11.08,13.73-1.62,27.5-3.04,41.3-3.99,7.24-.5,14.6-.18,21.85.42,11.73.98,16.92,12.16,14.4,22-1.14,4.45-4.16,7.71-8.89,8.65-8.37,1.67-16.72,3.54-25.17,4.62-37.45,4.77-74.94,9.26-112.4,13.93-12.03,1.5-24.01,3.29-36.04,4.74-2.59.31-3.67,1.19-4.31,3.74-1.17,4.65-2.67,9.24-4.4,13.71-1.73,4.48-4.95,7.9-9.17,10.21-7.28,3.99-15.45.29-16.65-7.94-.69-4.68-.12-9.54-.12-14.83-7.02.99-13.74,1.74-20.39,2.91-44.81,7.9-89.51,16.35-133.8,26.82-3.77.89-8.41,1-10.97,3.32-2.54,2.3-3.09,6.9-4.29,10.56-6.82,20.81-14.37,41.33-24.44,60.84-10.83,20.99-23.87,40.4-41.1,56.74-10.55,10.01-22.51,17.52-37.19,19.99-25.87,4.36-47.8-12.9-49.6-39.16-.86-12.53,2.49-24.29,6.47-35.96,5.07-14.89,12.68-28.41,22.2-40.81,5.04-6.56,10.4-13.09,16.62-18.49,21.8-18.93,45.14-35.57,72.71-45.31,1.61-.57,3.39-.95,4.72-1.94,1.64-1.22,3.59-2.74,4.19-4.53,6.89-20.44,13.55-40.95,20.25-61.45.13-.4-.04-.9-.06-1.27ZM111.59,601.57c-1.31.47-2.67.83-3.91,1.44-20.16,9.75-37.51,23.06-51.33,40.77-8.64,11.06-16.29,22.75-20.22,36.39-1.18,4.1-1.74,8.56-1.57,12.81.27,6.79,6.04,10.5,12.5,8.4,2.61-.85,5.1-2.28,7.39-3.83,7.16-4.84,12.84-11.24,18.08-18.02,12.03-15.56,21.36-32.73,29.29-50.65,3.87-8.75,6.86-17.89,10.26-26.85.18-.19.35-.38.53-.57-.34.03-.68.07-1.01.1ZM431.88,362.98c-.56-3.23-.98-8.71-2.53-13.85-2.76-9.16-9.07-11.31-16.67-5.45-4.33,3.34-8.48,7.54-11.16,12.24-4.2,7.34-7.69,15.23-10.42,23.25-6.94,20.43-11.42,41.53-15.77,62.64-.56,2.71.05,4.64,2.46,5.77,2.08.97,4.27,2.03,6.5,2.29,8.82,1.04,16.4-2.11,22.05-8.64,3.9-4.51,7.32-9.72,9.74-15.16,3.76-8.47,6.73-17.32,9.57-26.16,3.62-11.27,5.45-22.92,6.23-36.93ZM305.98,365.54c.22-9.3-4.8-13.37-12.1-11.52-1.94.49-3.81,1.3-5.65,2.13-10.61,4.77-18.26,12.75-24.03,22.62-8.42,14.41-13.35,30.01-14.95,46.59-.77,7.92-.36,15.85,2.67,23.4.69,1.71,1.48,3.44,2.53,4.94,5.17,7.35,13.18,8,19.39,1.51,5.58-5.84,9.04-13.06,11.53-20.57,5.91-17.79,11.46-35.71,16.93-53.64,1.72-5.62,2.74-11.45,3.67-15.46Z"/>
      <path class="cls-2" d="M335.2,0c51.87,3.15,92.87,27.03,115.32,77.53,22.49,50.58,7.26,110.31-35.51,145.63-27.13,22.41-58.41,32.27-93.4,30.47-10.57-.54-21.03-2.36-31.01-6.01-4.87-1.78-9.1-1.3-13.24,1.42-6.24,4.08-12.42,8.25-18.64,12.36-3.89,2.57-7.77,5.15-11.69,7.67-1.3.83-2.69,1.56-4.11,2.19-6.5,2.89-9.52,1.19-9.78-5.83-.15-4.17.11-8.4.62-12.55,1.06-8.48,2.36-16.92,3.67-25.36,1.11-7.15-.51-12.94-5.49-18.75-21.58-25.18-31.37-54.59-29.76-87.77,1.23-25.29,10.16-47.85,24.73-68.22,4.29-5.99,9.6-11.34,14.93-16.48,21.13-20.35,46.7-31.41,75.58-35.13,5.08-.65,10.23-.7,17.75-1.18ZM305.17,190.56c5.08-1.14,11.82-1.88,17.97-4.18,12.92-4.84,19.93-17.9,17.52-31.02-1.36-7.44-5.44-13.06-11.55-17.37-8.36-5.88-17.89-9.22-27.26-12.97-4.86-1.95-9.85-4.07-13.99-7.17-8.58-6.42-6.97-17.3,2.87-21.61,8.2-3.58,16.12-2.37,23.62,2.1,4.7,2.8,7.48,6.89,7.6,12.56.03,1.23.24,2.48.58,3.66,1.2,4.22,4.68,6.77,8.56,6.38,4.2-.42,7.45-3.66,7.54-8.11.23-11.23-3.74-20.56-13.85-26.16-13.71-7.59-28.14-8.5-42.65-2.45-8.56,3.57-14.21,9.95-15.37,19.52-1.26,10.39,1.69,19.22,10.76,25.06,4.93,3.18,10.29,5.74,15.6,8.27,5.32,2.53,10.95,4.43,16.22,7.05,3.43,1.71,6.86,3.81,9.6,6.45,4.46,4.29,5.82,9.91,4.01,15.86-1.76,5.78-6.9,7.14-12.08,7.98-2.29.37-4.65.44-6.97.43-14.87-.07-22.28-6.7-24.01-21.43-.62-5.31-4.07-8.42-8.95-8.09-4.7.32-7.97,4.13-7.58,9.4,1.13,15.29,9.53,29.31,27.31,33.65,4.2,1.02,8.58,1.32,14.5,2.18ZM413.71,88.52c-.09-4.26-1.62-6.64-4.55-8.03-2.81-1.34-6.46-.73-8.62,1.55-1.15,1.22-2.05,2.72-2.86,4.21-16.04,29.27-32.05,58.56-48.06,87.85-.74,1.36-1.55,2.71-2.07,4.17-1.2,3.36.15,7.02,3.13,8.96,2.97,1.93,6.9,1.69,9.46-.8,1.09-1.06,1.95-2.42,2.69-3.76,16.42-29.95,32.83-59.91,49.19-89.89.87-1.6,1.35-3.41,1.68-4.26Z"/>
      <path class="cls-1" d="M466.02,422.37c.58-10.25.13-18.64,1.74-26.62,2.21-10.97,5.39-21.84,9.2-32.38,6.52-18.04,15.16-35.18,27.5-49.97,6.01-7.2,13.14-13.78,20.78-19.22,8.22-5.85,18.25-6.72,28.28-5.48,6.05.75,11.73,2.38,16.61,6.27,5.96,4.76,9.23,10.88,10.38,18.42,1.28,8.38-.18,16.36-2.84,24.17-10.78,31.63-32.3,51.59-64.92,59.38-.45.11-.92.39-1.35.33-6.23-.89-7.71,3.36-9.1,8.07-2.06,6.98-2.99,13.96-1.24,21.13,1.9,7.8,8.01,11.92,16.02,10.69,9.07-1.39,16.67-5.98,23.48-11.72,5.56-4.68,10.76-9.86,15.62-15.27,7.22-8.04,11.43-7.55,15.85,2.41.31.71.58,1.44.92,2.14,4.53,9.41,3.08,17.13-4.75,24.67-12.59,12.13-25.36,23.8-41.88,30.25-6.01,2.35-12.4,4.41-18.78,5.03-17.67,1.74-31.39-7.58-37.32-24.5-1.12-3.21-2.16-6.53-2.58-9.89-.84-6.62-1.23-13.29-1.63-17.94ZM511.19,366.54c.3.4.6.81.9,1.21,4.15-1.55,8.49-2.73,12.4-4.73,11.36-5.8,20.75-13.67,25.3-26.11,1.4-3.83,2.28-7.77,1.1-11.86-1.19-4.11-4.42-6.42-8.48-5.19-3,.91-6.17,2.5-8.33,4.71-11.6,11.81-18.1,26.46-22.89,41.98Z"/>
    </g>
  </g>
</svg>