<?xml version="1.0" encoding="UTF-8"?>
<svg id="Capa_2" data-name="Capa 2" xmlns="http://www.w3.org/2000/svg" viewBox="0 0 1164.13 461.47">
  <defs>
    <style>
      .cls-1 {
        fill: red;
      }
    </style>
  </defs>
  <g id="Layer_1" data-name="Layer 1">
    <g>
      <path class="cls-1" d="M1119.98,215.56c-29.44-20.92-72.43-31.39-128.99-31.39h-251.08c-16.55,0-28.86-2.41-36.9-7.24-8.05-4.83-12.07-13.21-12.07-25.18s4.02-20.23,12.07-24.83c8.04-4.59,20.35-6.9,36.9-6.9h320.06L1151.71,0h-400.77c-34.95,0-64.96,3.45-90.02,10.35-25.07,6.9-45.53,16.56-61.39,28.97-7.63,5.97-14.28,12.57-19.99,19.77,13.37,16.02,24.79,33.49,34.12,52.29,17.38,35.06,26.19,73.71,26.19,114.87,0,12.29-.8,24.37-2.35,36.23,3.68,1.33,7.43,2.61,11.35,3.78,21.61,6.44,47.36,9.66,77.26,9.66h251.08c17.01,0,29.42,2.53,37.25,7.59,7.82,5.07,11.73,13.57,11.73,25.52s-3.91,20.58-11.73,25.87c-7.83,5.29-20.24,7.93-37.25,7.93h-363.7s-.02.04-.03.07c-17.18,35.2-41.14,66.01-71.19,91.58-11.55,9.82-24.02,18.82-37.29,27h461.18c34.94,0,64.95-3.45,90.02-10.35,25.06-6.9,45.63-16.78,61.74-29.66,16.09-12.87,27.82-28.73,35.18-47.59,7.35-18.85,11.04-40.01,11.04-63.46,0-42.3-14.72-73.91-44.15-94.84Z"/>
      <path class="cls-1" d="M587.01,226.25c0,33.57-7.02,64.73-21.04,93.47-14.03,28.74-33.35,53.58-57.94,74.5-24.61,20.93-53.92,37.36-87.95,49.32-34.04,11.96-71.05,17.93-111.05,17.93H0V173.83h143.47v169h165.55c19.77,0,38.05-2.64,54.84-7.93,16.78-5.28,31.15-12.76,43.11-22.42,11.95-9.65,21.38-21.27,28.28-34.83,6.9-13.56,10.35-28.63,10.35-45.18s-3.45-31.04-10.35-44.84c-6.9-13.8-16.56-25.63-28.97-35.52-12.42-9.88-26.9-17.7-43.46-23.45-16.55-5.74-34.49-8.62-53.8-8.62H0V0h309.03c40.46,0,77.71,5.52,111.74,16.56,34.03,11.04,63.34,26.56,87.95,46.56,24.59,20,43.8,43.92,57.6,71.74,13.8,27.83,20.69,58.29,20.69,91.4Z"/>
    </g>
  </g>
</svg>